<svg width="510" height="401" viewBox="0 0 510 401" fill="none" xmlns="http://www.w3.org/2000/svg">
<line x1="5" y1="3" x2="5" y2="399" stroke="#F9574D" stroke-width="10"/>
<line x1="1.94131e-05" y1="395" x2="508.001" y2="395.002" stroke="#F9574D" stroke-width="10"/>
<line x1="1.94131e-05" y1="5" x2="510" y2="5.00198" stroke="#F9574D" stroke-width="10"/>
<path d="M505 0L505 400.013" stroke="#F9574D" stroke-width="10"/>
<path d="M119.842 278.8H92.4418V302.1H116.842V309.9H92.4418V341H82.8418V271H119.842V278.8ZM128.865 314.5C128.865 309.9 129.465 305.867 130.665 302.4C131.932 298.867 133.632 295.933 135.765 293.6C137.899 291.2 140.432 289.433 143.365 288.3C146.365 287.1 149.565 286.5 152.965 286.5C156.365 286.5 159.532 287.1 162.465 288.3C165.465 289.433 168.032 291.2 170.165 293.6C172.365 295.933 174.065 298.867 175.265 302.4C176.532 305.867 177.165 309.9 177.165 314.5C177.165 319.1 176.532 323.167 175.265 326.7C174.065 330.167 172.365 333.1 170.165 335.5C168.032 337.833 165.465 339.6 162.465 340.8C159.532 341.933 156.365 342.5 152.965 342.5C149.565 342.5 146.365 341.933 143.365 340.8C140.432 339.6 137.899 337.833 135.765 335.5C133.632 333.1 131.932 330.167 130.665 326.7C129.465 323.167 128.865 319.1 128.865 314.5ZM138.865 314.5C138.865 321.367 140.165 326.467 142.765 329.8C145.432 333.067 148.832 334.7 152.965 334.7C157.165 334.7 160.565 333.067 163.165 329.8C165.832 326.467 167.165 321.367 167.165 314.5C167.165 307.633 165.832 302.567 163.165 299.3C160.565 295.967 157.165 294.3 152.965 294.3C148.832 294.3 145.432 295.967 142.765 299.3C140.165 302.567 138.865 307.633 138.865 314.5ZM202.27 288L202.77 294.5C204.837 292.167 207.303 290.3 210.17 288.9C213.037 287.433 216.07 286.633 219.27 286.5L219.77 293.7L218.57 294.8C215.437 294.867 212.603 295.433 210.07 296.5C207.603 297.5 205.503 298.9 203.77 300.7V341H194.17V288H202.27ZM238.793 288L239.293 294.2C241.227 292.2 243.493 290.433 246.093 288.9C248.76 287.3 251.693 286.5 254.893 286.5C258.96 286.5 262.227 287.167 264.693 288.5C267.16 289.833 268.96 292 270.093 295C272.027 292.8 274.36 290.833 277.093 289.1C279.893 287.367 282.993 286.5 286.393 286.5C289.393 286.5 291.96 286.867 294.093 287.6C296.293 288.333 298.06 289.5 299.393 291.1C300.727 292.633 301.693 294.667 302.293 297.2C302.96 299.733 303.293 302.8 303.293 306.4V341H293.693V305.4C293.693 298 290.527 294.3 284.193 294.3C281.86 294.3 279.627 294.867 277.493 296C275.36 297.067 273.327 298.567 271.393 300.5C271.527 301.433 271.627 302.367 271.693 303.3C271.76 304.233 271.793 305.267 271.793 306.4V341H262.193V305.4C262.193 298 259.027 294.3 252.693 294.3C250.493 294.3 248.327 294.833 246.193 295.9C244.127 296.967 242.16 298.4 240.293 300.2V341H230.693V288H238.793ZM316.795 336L342.595 295.5H318.795V288H353.995V293L328.195 333.5H353.495V341H316.795V336ZM378.086 341H368.486V288H378.086V341ZM367.186 271.3C367.186 269.167 367.753 267.6 368.886 266.6C370.086 265.533 371.553 265 373.286 265C375.086 265 376.553 265.533 377.686 266.6C378.886 267.6 379.486 269.167 379.486 271.3C379.486 273.433 378.886 275.033 377.686 276.1C376.553 277.1 375.086 277.6 373.286 277.6C371.553 277.6 370.086 277.1 368.886 276.1C367.753 275.033 367.186 273.433 367.186 271.3ZM419.876 334.7C423.276 334.7 426.21 334.067 428.676 332.8C431.21 331.467 433.243 330.067 434.776 328.6L439.076 333.8C437.01 336.133 434.31 338.167 430.976 339.9C427.643 341.633 423.843 342.5 419.576 342.5C416.043 342.5 412.776 341.933 409.776 340.8C406.776 339.6 404.176 337.833 401.976 335.5C399.843 333.1 398.143 330.167 396.876 326.7C395.676 323.167 395.076 319.1 395.076 314.5C395.076 309.9 395.676 305.867 396.876 302.4C398.076 298.867 399.743 295.933 401.876 293.6C404.01 291.2 406.51 289.433 409.376 288.3C412.31 287.1 415.476 286.5 418.876 286.5C422.01 286.5 424.876 287 427.476 288C430.143 288.933 432.41 290.4 434.276 292.4C436.143 294.4 437.576 296.9 438.576 299.9C439.643 302.833 440.176 306.3 440.176 310.3V317.3H405.176C405.576 323.233 407.11 327.633 409.776 330.5C412.51 333.3 415.876 334.7 419.876 334.7ZM418.976 294.3C415.376 294.3 412.31 295.633 409.776 298.3C407.31 300.9 405.81 304.9 405.276 310.3H430.676C430.676 305.167 429.643 301.233 427.576 298.5C425.576 295.7 422.71 294.3 418.976 294.3Z" fill="#DCB06F"/>
<path d="M207.521 365.628C207.475 365.663 207.425 365.701 207.372 365.742C207.319 365.783 207.284 365.836 207.267 365.9C207.255 365.965 207.237 366.038 207.214 366.12C207.19 366.196 207.138 366.249 207.056 366.278C207.015 366.29 206.909 366.305 206.739 366.322C206.569 366.334 206.373 366.349 206.15 366.366C205.928 366.384 205.693 366.398 205.447 366.41C205.207 366.422 204.993 366.425 204.806 366.419C204.653 366.419 204.469 366.425 204.252 366.437C204.064 366.448 203.83 366.466 203.549 366.489C203.273 366.507 202.948 366.539 202.573 366.586C202.556 366.92 202.544 367.269 202.538 367.632C202.532 367.989 202.526 368.344 202.521 368.695C202.515 369.047 202.512 369.384 202.512 369.706C202.512 370.022 202.512 370.301 202.512 370.541V371.367C202.523 371.479 202.506 371.602 202.459 371.736C202.418 371.865 202.348 371.947 202.248 371.982C202.154 372.012 202.075 372.041 202.011 372.07C201.952 372.105 201.888 372.129 201.817 372.141C201.782 372.146 201.732 372.149 201.668 372.149C201.609 372.149 201.548 372.144 201.483 372.132C201.425 372.12 201.369 372.097 201.316 372.062C201.27 372.026 201.237 371.977 201.22 371.912C201.196 371.842 201.17 371.774 201.141 371.71C201.117 371.64 201.094 371.54 201.07 371.411C201.047 371.276 201.023 371.095 201 370.866C200.977 370.638 200.959 370.333 200.947 369.952C200.936 369.647 200.938 369.264 200.956 368.801C200.979 368.338 201.009 367.843 201.044 367.315C201.085 366.788 201.129 366.252 201.176 365.707C201.229 365.156 201.278 364.644 201.325 364.169C201.372 363.694 201.413 363.278 201.448 362.921C201.483 362.563 201.51 362.309 201.527 362.156C201.539 362.039 201.551 361.919 201.562 361.796C201.574 361.69 201.586 361.576 201.598 361.453C201.609 361.33 201.621 361.21 201.633 361.093C201.527 361.093 201.419 361.093 201.308 361.093C201.202 361.093 201.132 361.087 201.097 361.075C201.009 361.063 200.924 361.04 200.842 361.005C200.76 360.97 200.687 360.932 200.622 360.891C200.558 360.844 200.502 360.797 200.455 360.75C200.408 360.703 200.382 360.656 200.376 360.609C200.37 360.574 200.373 360.542 200.385 360.513C200.396 360.483 200.414 360.46 200.438 360.442C200.461 360.419 200.499 360.401 200.552 360.39C200.517 360.29 200.511 360.22 200.534 360.179C200.54 360.155 200.552 360.141 200.569 360.135C200.604 360.123 200.651 360.108 200.71 360.091C200.774 360.067 200.824 360.041 200.859 360.012C200.871 359.994 200.895 359.974 200.93 359.95C200.971 359.927 201.012 359.906 201.053 359.889C201.094 359.865 201.132 359.845 201.167 359.827C201.208 359.81 201.237 359.798 201.255 359.792C201.267 359.786 201.325 359.774 201.431 359.757C201.542 359.733 201.677 359.71 201.835 359.687C201.999 359.657 202.175 359.628 202.362 359.599C202.556 359.569 202.74 359.546 202.916 359.528C203.039 359.517 203.247 359.505 203.54 359.493C203.839 359.476 204.179 359.461 204.56 359.449C204.94 359.432 205.339 359.42 205.755 359.414C206.171 359.402 206.561 359.396 206.924 359.396C207.24 359.396 207.516 359.402 207.75 359.414C207.984 359.42 208.148 359.435 208.242 359.458C208.383 359.487 208.494 359.52 208.576 359.555C208.664 359.584 208.731 359.613 208.778 359.643C208.825 359.672 208.854 359.701 208.866 359.73C208.884 359.754 208.89 359.769 208.884 359.774C208.884 359.786 208.881 359.801 208.875 359.818C208.863 359.854 208.849 359.883 208.831 359.906C208.89 359.941 208.925 359.977 208.937 360.012C208.942 360.035 208.945 360.053 208.945 360.064C208.939 360.088 208.928 360.126 208.91 360.179C208.898 360.231 208.887 360.29 208.875 360.354C208.863 360.413 208.852 360.475 208.84 360.539C208.834 360.598 208.837 360.645 208.849 360.68C208.866 360.75 208.878 360.809 208.884 360.855C208.89 360.902 208.878 360.94 208.849 360.97C208.837 360.981 208.819 360.987 208.796 360.987C208.767 360.993 208.714 360.987 208.638 360.97C208.644 360.987 208.623 361.002 208.576 361.014C208.553 361.02 208.529 361.022 208.506 361.022C208.477 361.022 208.38 361.02 208.216 361.014C208.052 361.002 207.844 360.99 207.592 360.979C207.34 360.961 207.059 360.949 206.748 360.943C206.438 360.932 206.124 360.926 205.808 360.926C205.603 360.926 205.397 360.932 205.192 360.943C204.993 360.949 204.803 360.958 204.621 360.97C204.334 360.987 204.041 361.005 203.742 361.022C203.443 361.034 203.153 361.046 202.872 361.058C202.808 361.966 202.758 362.754 202.723 363.422C202.688 364.09 202.661 364.632 202.644 365.048C202.966 364.983 203.265 364.937 203.54 364.907C203.815 364.872 204.056 364.843 204.261 364.819C204.495 364.796 204.712 364.778 204.911 364.767C205.169 364.761 205.415 364.761 205.649 364.767C205.884 364.772 206.095 364.781 206.282 364.793C206.476 364.805 206.64 364.819 206.774 364.837C206.915 364.854 207.015 364.872 207.073 364.89C207.179 364.919 207.258 364.96 207.311 365.013C207.363 365.065 207.41 365.139 207.451 365.232C207.486 365.32 207.516 365.402 207.539 365.479C207.562 365.549 207.557 365.599 207.521 365.628ZM214.228 368.291C214.228 368.906 214.137 369.46 213.955 369.952C213.779 370.444 213.536 370.863 213.226 371.209C212.921 371.555 212.566 371.821 212.162 372.009C211.758 372.196 211.33 372.29 210.879 372.29C210.691 372.29 210.486 372.267 210.264 372.22C210.041 372.179 209.818 372.108 209.596 372.009C209.373 371.909 209.156 371.777 208.945 371.613C208.734 371.449 208.547 371.247 208.383 371.007C208.219 370.767 208.087 370.485 207.987 370.163C207.894 369.841 207.85 369.469 207.855 369.047C207.855 368.566 207.914 368.13 208.031 367.737C208.148 367.339 208.298 366.984 208.479 366.674C208.667 366.357 208.878 366.085 209.112 365.856C209.347 365.628 209.581 365.438 209.815 365.285C210.05 365.127 210.275 365.01 210.492 364.934C210.709 364.857 210.896 364.813 211.055 364.802C211.137 364.796 211.172 364.805 211.16 364.828C211.154 364.852 211.134 364.878 211.099 364.907C211.063 364.937 211.031 364.966 211.002 364.995C210.979 365.024 210.99 365.042 211.037 365.048C211.078 365.06 211.11 365.071 211.134 365.083C211.163 365.095 211.192 365.109 211.222 365.127L211.292 365.048C211.333 365.019 211.371 365.004 211.406 365.004C211.447 365.004 211.482 365.01 211.512 365.021C211.541 365.027 211.564 365.03 211.582 365.03C211.6 365.03 211.611 365.013 211.617 364.978C211.629 364.913 211.649 364.878 211.679 364.872C211.714 364.86 211.79 364.854 211.907 364.854C211.978 364.854 212.083 364.875 212.224 364.916C212.37 364.957 212.528 365.027 212.698 365.127C212.874 365.227 213.05 365.361 213.226 365.531C213.407 365.695 213.571 365.906 213.718 366.164C213.87 366.416 213.993 366.718 214.087 367.069C214.181 367.421 214.228 367.828 214.228 368.291ZM211.055 365.716C210.85 365.839 210.647 366.006 210.448 366.217C210.249 366.428 210.067 366.671 209.903 366.946C209.745 367.222 209.616 367.529 209.517 367.869C209.417 368.209 209.367 368.566 209.367 368.941C209.367 369.346 209.402 369.712 209.473 370.04C209.549 370.368 209.657 370.649 209.798 370.884C209.938 371.112 210.108 371.291 210.308 371.42C210.513 371.543 210.744 371.604 211.002 371.604C211.23 371.604 211.456 371.54 211.679 371.411C211.907 371.282 212.109 371.089 212.285 370.831C212.461 370.573 212.602 370.254 212.707 369.873C212.818 369.492 212.874 369.05 212.874 368.546C212.874 368.036 212.807 367.608 212.672 367.263C212.537 366.917 212.385 366.639 212.215 366.428C212.051 366.211 211.893 366.059 211.74 365.971C211.588 365.877 211.494 365.83 211.459 365.83C211.377 365.83 211.312 365.83 211.266 365.83C211.225 365.83 211.154 365.792 211.055 365.716ZM219.756 365.681C219.75 365.851 219.732 366.021 219.703 366.19C219.68 366.354 219.645 366.513 219.598 366.665C219.551 366.812 219.492 366.943 219.422 367.061C219.357 367.178 219.284 367.271 219.202 367.342C219.132 367.4 219.076 367.43 219.035 367.43C218.994 367.43 218.959 367.418 218.93 367.395C218.906 367.371 218.886 367.345 218.868 367.315C218.851 367.286 218.827 367.269 218.798 367.263C218.774 367.257 218.742 367.26 218.701 367.271C218.666 367.277 218.628 367.277 218.587 367.271C218.552 367.266 218.517 367.245 218.481 367.21C218.452 367.169 218.432 367.099 218.42 366.999C218.408 366.888 218.411 366.744 218.429 366.568C218.452 366.387 218.464 366.211 218.464 366.041C218.464 365.889 218.446 365.763 218.411 365.663C218.382 365.558 218.326 365.505 218.244 365.505C218.203 365.505 218.13 365.537 218.024 365.602C217.925 365.66 217.813 365.789 217.69 365.988C217.567 366.188 217.444 366.478 217.321 366.858C217.198 367.233 217.099 367.734 217.022 368.361C217.022 369.17 217.028 369.82 217.04 370.312C217.052 370.805 217.058 371.188 217.058 371.464C217.058 371.698 217.052 371.865 217.04 371.965C217.028 372.064 216.999 372.129 216.952 372.158C216.923 372.176 216.864 372.196 216.776 372.22C216.694 372.249 216.604 372.275 216.504 372.299C216.41 372.322 216.319 372.343 216.231 372.36C216.144 372.378 216.088 372.384 216.064 372.378C216.047 372.372 216.015 372.352 215.968 372.316C215.921 372.287 215.871 372.249 215.818 372.202C215.771 372.155 215.728 372.105 215.687 372.053C215.646 372.006 215.622 371.965 215.616 371.93C215.604 371.871 215.599 371.739 215.599 371.534C215.604 371.323 215.607 371.071 215.607 370.778C215.613 370.485 215.619 370.166 215.625 369.82C215.631 369.469 215.634 369.12 215.634 368.774C215.634 368.552 215.64 368.306 215.651 368.036C215.669 367.761 215.687 367.482 215.704 367.201C215.728 366.92 215.751 366.645 215.774 366.375C215.798 366.105 215.818 365.865 215.836 365.654C215.859 365.438 215.877 365.259 215.889 365.118C215.906 364.972 215.918 364.884 215.924 364.854C215.93 364.808 215.95 364.79 215.985 364.802C216.026 364.813 216.067 364.834 216.108 364.863C216.155 364.893 216.196 364.919 216.231 364.942C216.267 364.966 216.29 364.966 216.302 364.942C216.313 364.89 216.357 364.884 216.434 364.925C216.51 364.96 216.58 365.001 216.645 365.048C216.668 365.077 216.694 365.104 216.724 365.127C216.759 365.145 216.791 365.171 216.82 365.206C216.85 365.235 216.873 365.276 216.891 365.329C216.914 365.382 216.926 365.452 216.926 365.54C216.926 365.622 216.932 365.745 216.943 365.909C216.955 366.073 216.97 366.267 216.987 366.489C217.052 366.278 217.128 366.056 217.216 365.821C217.31 365.587 217.421 365.373 217.55 365.18C217.679 364.98 217.831 364.816 218.007 364.688C218.183 364.559 218.394 364.494 218.64 364.494C218.774 364.494 218.909 364.521 219.044 364.573C219.179 364.626 219.299 364.705 219.404 364.811C219.516 364.91 219.604 365.033 219.668 365.18C219.732 365.326 219.762 365.493 219.756 365.681ZM229.09 371.402C229.107 371.449 229.119 371.487 229.125 371.517C229.137 371.546 229.143 371.575 229.143 371.604C229.143 371.657 229.119 371.689 229.072 371.701C229.031 371.707 228.987 371.716 228.94 371.728C228.929 371.733 228.917 371.763 228.905 371.815C228.894 371.862 228.876 371.915 228.853 371.974C228.835 372.032 228.803 372.085 228.756 372.132C228.715 372.179 228.656 372.202 228.58 372.202C228.334 372.185 228.141 372.129 228 372.035C227.859 371.947 227.754 371.824 227.684 371.666C227.613 371.508 227.569 371.32 227.552 371.104C227.534 370.881 227.525 370.635 227.525 370.365C227.525 370.049 227.537 369.718 227.561 369.372C227.59 369.026 227.622 368.689 227.657 368.361C227.692 368.033 227.722 367.726 227.745 367.438C227.774 367.146 227.789 366.896 227.789 366.691C227.789 366.393 227.763 366.161 227.71 365.997C227.663 365.833 227.596 365.751 227.508 365.751C227.467 365.751 227.361 365.874 227.191 366.12C227.021 366.36 226.816 366.727 226.576 367.219C226.342 367.711 226.087 368.329 225.812 369.073C225.542 369.817 225.284 370.69 225.038 371.692C225.026 371.733 225.021 371.777 225.021 371.824C225.021 371.871 225.018 371.915 225.012 371.956C225.006 371.991 224.991 372.021 224.968 372.044C224.95 372.073 224.921 372.088 224.88 372.088C224.798 372.088 224.733 372.07 224.687 372.035C224.64 372.006 224.599 371.974 224.563 371.938C224.528 371.897 224.496 371.862 224.467 371.833C224.438 371.798 224.399 371.78 224.353 371.78C224.335 371.78 224.32 371.792 224.309 371.815C224.297 371.839 224.282 371.868 224.265 371.903C224.247 371.933 224.227 371.959 224.203 371.982C224.18 372.006 224.147 372.018 224.106 372.018C224.071 372.018 224.033 372.012 223.992 372C223.951 371.982 223.91 371.944 223.869 371.886C223.828 371.821 223.793 371.73 223.764 371.613C223.74 371.49 223.729 371.326 223.729 371.121V370.726C223.729 370.644 223.737 370.518 223.755 370.348C223.772 370.172 223.79 369.97 223.808 369.741C223.831 369.513 223.854 369.267 223.878 369.003C223.907 368.733 223.931 368.461 223.948 368.186C223.972 367.91 223.989 367.641 224.001 367.377C224.019 367.113 224.027 366.873 224.027 366.656C224.027 365.994 223.945 365.663 223.781 365.663C223.74 365.663 223.693 365.678 223.641 365.707C223.588 365.736 223.523 365.798 223.447 365.892C223.377 365.979 223.292 366.108 223.192 366.278C223.099 366.442 222.99 366.665 222.867 366.946C222.75 367.222 222.612 367.562 222.454 367.966C222.302 368.364 222.132 368.845 221.944 369.407C221.903 369.53 221.856 369.712 221.804 369.952C221.757 370.187 221.713 370.427 221.672 370.673C221.631 370.919 221.596 371.147 221.566 371.358C221.543 371.563 221.531 371.698 221.531 371.763C221.531 371.78 221.499 371.81 221.435 371.851C221.376 371.886 221.306 371.921 221.224 371.956C221.142 371.991 221.057 372.021 220.969 372.044C220.887 372.073 220.822 372.088 220.775 372.088C220.676 372.088 220.6 372.059 220.547 372C220.494 371.947 220.453 371.848 220.424 371.701C220.4 371.549 220.386 371.344 220.38 371.086C220.38 370.822 220.38 370.485 220.38 370.075C220.38 369.97 220.383 369.762 220.389 369.451C220.4 369.141 220.418 368.783 220.441 368.379C220.465 367.975 220.494 367.553 220.529 367.113C220.564 366.668 220.605 366.261 220.652 365.892C220.699 365.522 220.755 365.218 220.819 364.978C220.884 364.737 220.957 364.617 221.039 364.617C221.08 364.617 221.118 364.632 221.153 364.661C221.188 364.69 221.221 364.723 221.25 364.758C221.279 364.787 221.306 364.816 221.329 364.846C221.358 364.875 221.388 364.89 221.417 364.89C221.44 364.89 221.464 364.878 221.487 364.854C221.517 364.831 221.54 364.805 221.558 364.775C221.581 364.74 221.602 364.711 221.619 364.688C221.643 364.664 221.66 364.652 221.672 364.652C221.689 364.652 221.716 364.682 221.751 364.74C221.786 364.799 221.818 364.869 221.848 364.951C221.883 365.027 221.912 365.109 221.936 365.197C221.965 365.279 221.979 365.344 221.979 365.391C221.979 365.508 221.968 365.675 221.944 365.892C221.927 366.108 221.903 366.349 221.874 366.612C221.851 366.87 221.827 367.134 221.804 367.403C221.786 367.673 221.777 367.922 221.777 368.15V368.186C221.854 367.934 221.941 367.676 222.041 367.412C222.146 367.143 222.261 366.882 222.384 366.63C222.507 366.372 222.636 366.129 222.771 365.9C222.911 365.672 223.058 365.473 223.21 365.303C223.362 365.133 223.518 364.998 223.676 364.898C223.834 364.799 223.995 364.749 224.159 364.749C224.358 364.749 224.528 364.784 224.669 364.854C224.815 364.919 224.933 365.013 225.021 365.136C225.108 365.253 225.173 365.391 225.214 365.549C225.255 365.701 225.275 365.865 225.275 366.041C225.275 366.193 225.264 366.369 225.24 366.568C225.223 366.768 225.202 366.99 225.179 367.236C225.155 367.477 225.132 367.743 225.108 368.036C225.091 368.323 225.079 368.637 225.073 368.977C225.149 368.766 225.24 368.514 225.346 368.221C225.457 367.922 225.577 367.614 225.706 367.298C225.841 366.981 225.981 366.668 226.128 366.357C226.28 366.047 226.433 365.769 226.585 365.522C226.737 365.276 226.89 365.077 227.042 364.925C227.2 364.772 227.35 364.696 227.49 364.696C227.531 364.696 227.622 364.711 227.763 364.74C227.909 364.764 228.062 364.802 228.22 364.854C228.384 364.901 228.536 364.963 228.677 365.039C228.817 365.109 228.911 365.191 228.958 365.285C229.005 365.385 229.046 365.525 229.081 365.707C229.122 365.883 229.143 366.12 229.143 366.419C229.143 366.683 229.122 366.999 229.081 367.368C229.046 367.731 228.981 368.171 228.888 368.687C228.858 368.856 228.838 369.021 228.826 369.179C228.82 369.337 228.817 369.492 228.817 369.645C228.817 369.867 228.826 370.075 228.844 370.269C228.867 370.462 228.894 370.635 228.923 370.787C228.952 370.939 228.981 371.071 229.011 371.183C229.04 371.288 229.066 371.361 229.09 371.402ZM236.007 365.092C236.024 365.127 236.033 365.162 236.033 365.197C236.039 365.232 236.042 365.273 236.042 365.32C236.042 365.508 235.942 365.704 235.743 365.909C235.55 366.114 235.242 366.302 234.82 366.472C234.732 366.507 234.653 366.524 234.583 366.524C234.495 366.524 234.419 366.501 234.354 366.454C234.296 366.401 234.267 366.349 234.267 366.296C234.267 366.261 234.287 366.22 234.328 366.173C234.375 366.126 234.422 366.079 234.469 366.032C234.521 365.985 234.568 365.941 234.609 365.9C234.656 365.859 234.68 365.827 234.68 365.804C234.68 365.757 234.642 365.733 234.565 365.733C234.448 365.733 234.299 365.769 234.117 365.839C233.936 365.903 233.742 365.991 233.537 366.103C233.338 366.208 233.133 366.325 232.922 366.454C232.717 366.577 232.532 366.7 232.368 366.823C232.204 366.94 232.069 367.046 231.964 367.14C231.864 367.233 231.814 367.301 231.814 367.342C231.814 367.365 231.838 367.377 231.885 367.377H232.14C232.298 367.377 232.5 367.386 232.746 367.403C232.998 367.421 233.262 367.456 233.537 367.509C233.812 367.556 234.088 367.626 234.363 367.72C234.645 367.808 234.894 367.928 235.11 368.08C235.333 368.232 235.515 368.417 235.655 368.634C235.796 368.851 235.866 369.108 235.866 369.407C235.866 369.56 235.84 369.724 235.787 369.899C235.74 370.069 235.652 370.245 235.523 370.427C235.4 370.603 235.23 370.784 235.014 370.972C234.797 371.153 234.521 371.335 234.188 371.517C233.684 371.786 233.212 371.985 232.772 372.114C232.339 372.243 231.946 372.308 231.595 372.308C231.138 372.308 230.777 372.205 230.514 372C230.25 371.795 230.118 371.502 230.118 371.121C230.118 370.84 230.171 370.6 230.276 370.4C230.388 370.201 230.517 370.037 230.663 369.908C230.81 369.773 230.956 369.677 231.103 369.618C231.249 369.554 231.36 369.519 231.437 369.513C231.472 369.513 231.501 369.51 231.524 369.504C231.554 369.498 231.583 369.495 231.612 369.495C231.665 369.495 231.691 369.527 231.691 369.592V369.68C231.691 369.715 231.7 369.747 231.718 369.776C231.735 369.8 231.744 369.826 231.744 369.855C231.744 369.891 231.7 369.943 231.612 370.014C231.53 370.084 231.439 370.166 231.34 370.26C231.24 370.354 231.146 370.453 231.059 370.559C230.977 370.664 230.936 370.767 230.936 370.866C230.936 370.983 231.029 371.042 231.217 371.042C231.451 371.042 231.697 370.998 231.955 370.91C232.219 370.816 232.474 370.699 232.72 370.559C232.972 370.418 233.209 370.26 233.432 370.084C233.66 369.902 233.859 369.727 234.029 369.557C234.199 369.387 234.334 369.229 234.434 369.082C234.533 368.93 234.583 368.81 234.583 368.722C234.583 368.616 234.521 368.531 234.398 368.467C234.281 368.402 234.117 368.35 233.906 368.309C233.701 368.268 233.461 368.241 233.186 368.229C232.91 368.212 232.62 368.203 232.315 368.203C231.999 368.203 231.735 368.218 231.524 368.247C231.319 368.276 231.193 368.291 231.146 368.291C231.111 368.291 231.053 368.288 230.971 368.282C230.895 368.271 230.815 368.244 230.733 368.203C230.657 368.156 230.59 368.089 230.531 368.001C230.473 367.913 230.443 367.787 230.443 367.623C230.443 367.512 230.467 367.386 230.514 367.245C230.566 367.104 230.654 366.955 230.777 366.797C230.906 366.633 231.079 366.457 231.296 366.27C231.519 366.082 231.8 365.886 232.14 365.681C232.497 365.464 232.831 365.288 233.142 365.153C233.458 365.013 233.742 364.904 233.994 364.828C234.252 364.752 234.478 364.702 234.671 364.679C234.864 364.649 235.017 364.635 235.128 364.635C235.392 364.635 235.588 364.67 235.717 364.74C235.846 364.805 235.942 364.922 236.007 365.092ZM252.996 371.675C252.984 371.722 252.979 371.769 252.979 371.815C252.984 371.856 252.981 371.886 252.97 371.903C252.964 371.921 252.943 371.918 252.908 371.895C252.873 371.865 252.812 371.804 252.724 371.71L252.495 371.64L252.398 371.736C252.381 371.754 252.363 371.769 252.346 371.78C252.299 371.821 252.255 371.827 252.214 371.798C252.179 371.763 252.132 371.722 252.073 371.675C252.026 371.634 251.991 371.607 251.968 371.596C251.95 371.584 251.938 371.584 251.933 371.596C251.933 371.602 251.933 371.622 251.933 371.657C251.938 371.687 251.938 371.722 251.933 371.763C251.933 371.78 251.918 371.812 251.889 371.859C251.859 371.9 251.845 371.93 251.845 371.947C251.833 372 251.815 372.018 251.792 372C251.769 371.982 251.745 371.977 251.722 371.982C251.71 371.982 251.692 371.977 251.669 371.965C251.651 371.953 251.628 371.936 251.599 371.912C251.575 371.889 251.549 371.851 251.52 371.798C251.496 371.739 251.476 371.692 251.458 371.657C251.44 371.616 251.423 371.575 251.405 371.534C251.388 371.493 251.367 371.443 251.344 371.385C251.326 371.326 251.306 371.25 251.282 371.156C251.265 371.062 251.241 370.89 251.212 370.638C251.183 370.386 251.15 370.084 251.115 369.732C251.08 369.375 251.039 368.977 250.992 368.537C250.951 368.098 250.907 367.638 250.86 367.157C250.819 366.677 250.775 366.19 250.729 365.698C250.682 365.2 250.638 364.72 250.597 364.257C250.556 363.788 250.518 363.346 250.482 362.93C250.447 362.514 250.415 362.147 250.386 361.831L246.782 370.813C246.712 370.983 246.63 371.139 246.536 371.279C246.442 371.414 246.346 371.525 246.246 371.613C246.152 371.695 246.059 371.751 245.965 371.78C245.877 371.81 245.804 371.804 245.745 371.763C245.657 371.704 245.584 371.634 245.525 371.552C245.473 371.464 245.426 371.373 245.385 371.279C245.35 371.18 245.317 371.077 245.288 370.972C245.259 370.866 245.224 370.758 245.183 370.646C245.124 370.477 245.048 370.204 244.954 369.829C244.866 369.454 244.764 369.018 244.646 368.52C244.529 368.016 244.406 367.468 244.277 366.876C244.148 366.278 244.017 365.675 243.882 365.065C243.747 364.45 243.615 363.85 243.486 363.264C243.363 362.672 243.246 362.127 243.135 361.629C243.105 361.834 243.059 362.133 242.994 362.525C242.93 362.912 242.854 363.357 242.766 363.861C242.684 364.359 242.593 364.896 242.493 365.47C242.394 366.044 242.294 366.618 242.194 367.192C242.101 367.767 242.007 368.323 241.913 368.862C241.825 369.401 241.743 369.888 241.667 370.321C241.597 370.755 241.535 371.115 241.482 371.402C241.436 371.684 241.409 371.859 241.403 371.93C241.403 371.982 241.392 372.038 241.368 372.097C241.351 372.144 241.324 372.193 241.289 372.246C241.26 372.305 241.219 372.36 241.166 372.413C241.119 372.431 241.072 372.448 241.025 372.466C240.979 372.483 240.938 372.483 240.902 372.466C240.861 372.448 240.838 372.416 240.832 372.369C240.826 372.328 240.794 372.29 240.735 372.255C240.7 372.226 240.662 372.202 240.621 372.185C240.58 372.173 240.542 372.135 240.507 372.07C240.507 372.029 240.501 371.997 240.489 371.974C240.483 371.962 240.478 371.953 240.472 371.947C240.466 371.941 240.457 371.93 240.445 371.912C240.434 371.895 240.398 371.856 240.34 371.798C240.305 371.728 240.278 371.651 240.261 371.569C240.249 371.481 240.258 371.373 240.287 371.244C240.299 371.203 240.322 371.098 240.357 370.928C240.393 370.752 240.434 370.541 240.48 370.295C240.533 370.043 240.589 369.768 240.647 369.469C240.706 369.164 240.765 368.856 240.823 368.546C240.882 368.235 240.935 367.937 240.981 367.649C241.034 367.362 241.078 367.107 241.113 366.885C241.148 366.691 241.204 366.419 241.28 366.067C241.362 365.71 241.456 365.314 241.562 364.881C241.667 364.447 241.778 363.993 241.896 363.519C242.019 363.044 242.136 362.587 242.247 362.147C242.358 361.702 242.458 361.295 242.546 360.926C242.64 360.551 242.71 360.252 242.757 360.029C242.745 360 242.736 359.971 242.73 359.941C242.725 359.912 242.722 359.883 242.722 359.854C242.698 359.795 242.701 359.763 242.73 359.757C242.766 359.751 242.792 359.739 242.81 359.722C242.81 359.71 242.812 359.701 242.818 359.695C242.824 359.689 242.827 359.681 242.827 359.669C242.827 359.634 242.833 359.616 242.845 359.616C242.845 359.54 242.856 359.49 242.88 359.467C242.903 359.443 242.927 359.429 242.95 359.423C242.979 359.417 243.006 359.414 243.029 359.414C243.053 359.414 243.067 359.396 243.073 359.361C243.085 359.285 243.097 359.235 243.108 359.212C243.126 359.183 243.144 359.171 243.161 359.177C243.185 359.177 243.214 359.188 243.249 359.212C243.284 359.229 243.328 359.25 243.381 359.273C243.41 359.285 243.434 359.291 243.451 359.291C243.475 359.285 243.498 359.285 243.521 359.291C243.545 359.291 243.571 359.297 243.601 359.309C243.636 359.32 243.677 359.344 243.724 359.379C243.759 359.408 243.788 359.423 243.812 359.423C243.841 359.423 243.864 359.414 243.882 359.396C243.905 359.379 243.923 359.358 243.935 359.335C243.952 359.312 243.967 359.291 243.979 359.273C243.996 359.244 244.022 359.229 244.058 359.229C244.093 359.229 244.125 359.244 244.154 359.273C244.189 359.32 244.216 359.353 244.233 359.37C244.257 359.388 244.271 359.402 244.277 359.414C244.289 359.42 244.295 359.426 244.295 359.432C244.295 359.432 244.298 359.44 244.304 359.458C244.392 359.722 244.468 359.997 244.532 360.284C244.603 360.571 244.673 360.899 244.743 361.269C244.819 361.638 244.907 362.065 245.007 362.552C245.106 363.032 245.232 363.601 245.385 364.257C245.637 365.37 245.856 366.308 246.044 367.069C246.231 367.825 246.39 368.394 246.519 368.774C246.636 368.505 246.776 368.177 246.94 367.79C247.11 367.403 247.289 366.984 247.477 366.533C247.664 366.076 247.86 365.604 248.065 365.118C248.271 364.626 248.473 364.14 248.672 363.659C248.871 363.179 249.062 362.719 249.243 362.279C249.431 361.84 249.595 361.444 249.735 361.093C249.882 360.741 250.005 360.445 250.104 360.205C250.204 359.965 250.269 359.81 250.298 359.739C250.333 359.657 250.359 359.59 250.377 359.537C250.4 359.484 250.427 359.443 250.456 359.414C250.474 359.367 250.497 359.335 250.526 359.317C250.562 359.294 250.6 359.291 250.641 359.309C250.652 359.32 250.667 359.329 250.685 359.335C250.696 359.347 250.708 359.355 250.72 359.361C250.737 359.361 250.752 359.367 250.764 359.379C250.77 359.35 250.781 359.335 250.799 359.335C250.816 359.329 250.837 359.326 250.86 359.326C250.884 359.332 250.91 359.338 250.939 359.344H250.966H251.001C251.019 359.332 251.036 359.323 251.054 359.317C251.071 359.306 251.089 359.309 251.106 359.326C251.159 359.355 251.194 359.358 251.212 359.335C251.235 359.306 251.271 359.291 251.317 359.291C251.347 359.291 251.373 359.288 251.396 359.282C251.414 359.276 251.432 359.271 251.449 359.265C251.467 359.253 251.479 359.238 251.484 359.221C251.508 359.221 251.525 359.224 251.537 359.229C251.555 359.235 251.569 359.241 251.581 359.247L251.607 359.273C251.625 359.297 251.651 359.399 251.687 359.581C251.722 359.757 251.76 359.977 251.801 360.24C251.848 360.498 251.892 360.779 251.933 361.084C251.979 361.389 252.021 361.679 252.056 361.954C252.067 362.048 252.091 362.256 252.126 362.578C252.161 362.895 252.202 363.284 252.249 363.747C252.296 364.204 252.349 364.714 252.407 365.276C252.466 365.839 252.524 366.407 252.583 366.981C252.642 367.556 252.697 368.118 252.75 368.669C252.803 369.214 252.847 369.703 252.882 370.137C252.923 370.57 252.952 370.928 252.97 371.209C252.993 371.484 253.002 371.64 252.996 371.675ZM259.808 366.85C259.813 367.055 259.796 367.307 259.755 367.605C259.714 367.898 259.667 368.215 259.614 368.555C259.562 368.889 259.512 369.231 259.465 369.583C259.418 369.935 259.395 370.266 259.395 370.576C259.395 370.781 259.409 370.978 259.438 371.165C259.468 371.347 259.518 371.505 259.588 371.64C259.629 371.716 259.649 371.783 259.649 371.842C259.655 371.9 259.652 371.953 259.641 372C259.629 372.041 259.617 372.076 259.605 372.105C259.594 372.141 259.594 372.173 259.605 372.202C259.617 372.231 259.614 372.264 259.597 372.299C259.579 372.34 259.553 372.375 259.518 372.404C259.482 372.439 259.441 372.463 259.395 372.475C259.354 372.492 259.315 372.489 259.28 372.466C259.216 372.425 259.163 372.401 259.122 372.396C259.087 372.39 259.055 372.39 259.025 372.396C259.002 372.407 258.979 372.419 258.955 372.431C258.938 372.442 258.914 372.442 258.885 372.431C258.785 372.378 258.677 372.316 258.56 372.246C258.442 372.176 258.366 372.1 258.331 372.018C258.308 371.982 258.284 371.924 258.261 371.842C258.243 371.76 258.226 371.663 258.208 371.552C258.196 371.44 258.185 371.32 258.173 371.191C258.161 371.062 258.152 370.937 258.146 370.813C257.953 371.177 257.745 371.479 257.522 371.719C257.306 371.959 257.086 372.149 256.863 372.29C256.646 372.437 256.43 372.539 256.213 372.598C256.002 372.656 255.809 372.686 255.633 372.686C255.451 372.686 255.29 372.662 255.149 372.615C255.015 372.568 254.909 372.513 254.833 372.448C254.546 372.161 254.341 371.93 254.218 371.754C254.101 371.572 254.048 371.426 254.06 371.314C254.089 370.939 254.18 370.594 254.332 370.277C254.484 369.961 254.675 369.671 254.903 369.407C255.132 369.138 255.387 368.897 255.668 368.687C255.955 368.47 256.245 368.279 256.538 368.115C256.837 367.945 257.13 367.805 257.417 367.693C257.704 367.576 257.965 367.482 258.199 367.412C258.188 367.096 258.173 366.82 258.155 366.586C258.144 366.346 258.123 366.17 258.094 366.059C258.006 365.695 257.871 365.426 257.689 365.25C257.508 365.068 257.288 364.978 257.03 364.978C256.866 364.978 256.699 365.039 256.529 365.162C256.365 365.285 256.216 365.452 256.081 365.663C255.946 365.874 255.835 366.117 255.747 366.393C255.665 366.668 255.621 366.958 255.615 367.263C255.615 367.339 255.618 367.412 255.624 367.482C255.63 367.553 255.639 367.626 255.65 367.702C255.656 367.743 255.642 367.772 255.606 367.79C255.577 367.808 255.539 367.822 255.492 367.834C255.445 367.84 255.396 367.846 255.343 367.852C255.29 367.857 255.246 367.866 255.211 367.878C255.182 367.89 255.158 367.898 255.141 367.904C255.123 367.904 255.105 367.901 255.088 367.896C255.07 367.884 255.047 367.866 255.018 367.843C254.994 367.819 254.959 367.79 254.912 367.755C254.865 367.72 254.815 367.69 254.763 367.667C254.716 367.644 254.672 367.623 254.631 367.605C254.596 367.588 254.563 367.573 254.534 367.562C254.511 367.544 254.499 367.523 254.499 367.5C254.499 367.137 254.578 366.762 254.736 366.375C254.9 365.988 255.117 365.637 255.387 365.32C255.662 364.998 255.979 364.734 256.336 364.529C256.699 364.324 257.083 364.222 257.487 364.222C257.815 364.222 258.1 364.271 258.34 364.371C258.58 364.471 258.785 364.6 258.955 364.758C259.125 364.916 259.263 365.092 259.368 365.285C259.479 365.479 259.564 365.675 259.623 365.874C259.688 366.067 259.731 366.252 259.755 366.428C259.784 366.598 259.802 366.738 259.808 366.85ZM258.217 368.414C258.041 368.479 257.848 368.563 257.637 368.669C257.426 368.774 257.212 368.9 256.995 369.047C256.778 369.188 256.562 369.352 256.345 369.539C256.128 369.727 255.926 369.935 255.738 370.163C255.516 370.427 255.354 370.661 255.255 370.866C255.155 371.071 255.094 371.247 255.07 371.394C255.047 371.534 255.053 371.646 255.088 371.728C255.123 371.81 255.164 371.859 255.211 371.877C255.393 371.947 255.58 371.956 255.773 371.903C255.973 371.845 256.169 371.745 256.362 371.604C256.562 371.458 256.752 371.285 256.934 371.086C257.121 370.881 257.297 370.673 257.461 370.462C257.625 370.245 257.771 370.034 257.9 369.829C258.029 369.618 258.135 369.437 258.217 369.284V368.414ZM268.658 360.891C268.652 361.014 268.635 361.198 268.605 361.444C268.576 361.69 268.538 361.983 268.491 362.323C268.45 362.657 268.406 363.032 268.359 363.448C268.312 363.858 268.269 364.292 268.228 364.749C268.187 365.2 268.151 365.666 268.122 366.146C268.099 366.621 268.087 367.096 268.087 367.57C268.087 367.816 268.093 368.095 268.104 368.405C268.116 368.716 268.128 369.032 268.14 369.354C268.157 369.671 268.175 369.984 268.192 370.295C268.21 370.6 268.225 370.875 268.236 371.121C268.248 371.367 268.254 371.569 268.254 371.728C268.254 371.886 268.245 371.977 268.228 372C268.198 372.035 268.16 372.05 268.113 372.044C268.066 372.044 268.02 372.038 267.973 372.026C267.926 372.021 267.879 372.015 267.832 372.009C267.791 372.003 267.762 372.012 267.744 372.035C267.732 372.064 267.712 372.094 267.683 372.123C267.653 372.158 267.618 372.188 267.577 372.211C267.542 372.24 267.498 372.261 267.445 372.272C267.393 372.284 267.337 372.278 267.278 372.255C267.179 372.196 267.085 372.111 266.997 372C266.915 371.895 266.865 371.757 266.848 371.587C266.83 371.47 266.815 371.332 266.804 371.174C266.798 371.016 266.792 370.846 266.786 370.664C266.78 370.477 266.774 370.286 266.769 370.093C266.769 369.894 266.769 369.7 266.769 369.513C266.628 369.899 266.461 370.248 266.268 370.559C266.074 370.863 265.863 371.127 265.635 371.35C265.412 371.572 265.178 371.754 264.932 371.895C264.686 372.029 264.442 372.123 264.202 372.176C263.886 372.24 263.555 372.234 263.209 372.158C262.869 372.088 262.55 371.968 262.251 371.798C261.958 371.622 261.703 371.408 261.486 371.156C261.27 370.898 261.129 370.614 261.064 370.304C261.018 370.087 260.985 369.876 260.968 369.671C260.95 369.466 260.941 369.27 260.941 369.082C260.941 368.584 261.003 368.133 261.126 367.729C261.249 367.324 261.407 366.964 261.601 366.647C261.794 366.325 262.005 366.047 262.233 365.812C262.468 365.578 262.693 365.382 262.91 365.224C263.127 365.065 263.32 364.945 263.49 364.863C263.66 364.781 263.783 364.731 263.859 364.714C264 364.673 264.141 364.646 264.281 364.635C264.422 364.623 264.557 364.617 264.686 364.617C264.943 364.617 265.184 364.644 265.406 364.696C265.629 364.749 265.831 364.816 266.013 364.898C266.2 364.98 266.364 365.071 266.505 365.171C266.651 365.271 266.777 365.364 266.883 365.452C266.9 365.101 266.918 364.749 266.936 364.397C266.953 364.046 266.971 363.712 266.988 363.396C267.012 363.079 267.032 362.786 267.05 362.517C267.073 362.247 267.1 362.019 267.129 361.831C267.176 361.515 267.22 361.242 267.261 361.014C267.308 360.785 267.352 360.589 267.393 360.425C267.439 360.255 267.483 360.111 267.524 359.994C267.571 359.877 267.615 359.774 267.656 359.687C267.68 359.663 267.718 359.651 267.771 359.651C267.829 359.646 267.894 359.651 267.964 359.669C268.034 359.681 268.107 359.701 268.184 359.73C268.26 359.76 268.33 359.795 268.395 359.836C268.453 359.877 268.503 359.921 268.544 359.968C268.585 360.015 268.617 360.076 268.641 360.152C268.664 360.229 268.676 360.325 268.676 360.442C268.682 360.56 268.676 360.709 268.658 360.891ZM266.751 366.691C266.751 366.615 266.754 366.533 266.76 366.445C266.766 366.352 266.774 366.264 266.786 366.182C266.739 366.223 266.695 366.261 266.654 366.296C266.619 366.325 266.593 366.354 266.575 366.384C266.446 366.53 266.358 366.612 266.312 366.63C266.265 366.642 266.215 366.621 266.162 366.568C265.764 366.17 265.38 365.9 265.011 365.76C264.647 365.613 264.316 365.54 264.018 365.54C263.818 365.54 263.643 365.563 263.49 365.61C263.344 365.651 263.227 365.698 263.139 365.751C262.98 365.845 262.837 365.988 262.708 366.182C262.579 366.369 262.468 366.586 262.374 366.832C262.286 367.078 262.216 367.345 262.163 367.632C262.116 367.913 262.093 368.194 262.093 368.476C262.093 368.774 262.122 369.062 262.181 369.337C262.245 369.612 262.345 369.855 262.479 370.066C262.614 370.277 262.79 370.444 263.007 370.567C263.224 370.685 263.487 370.737 263.798 370.726C264.138 370.708 264.445 370.626 264.721 370.479C265.002 370.333 265.251 370.146 265.468 369.917C265.69 369.688 265.881 369.431 266.039 369.144C266.197 368.856 266.329 368.566 266.435 368.273C266.54 367.98 266.619 367.696 266.672 367.421C266.725 367.146 266.751 366.902 266.751 366.691ZM275.566 368.792C275.566 368.856 275.569 368.933 275.575 369.021C275.581 369.108 275.584 369.208 275.584 369.319C275.584 369.46 275.563 369.636 275.522 369.847C275.481 370.052 275.414 370.269 275.32 370.497C275.232 370.726 275.112 370.954 274.96 371.183C274.808 371.411 274.62 371.616 274.397 371.798C274.175 371.979 273.911 372.126 273.606 372.237C273.308 372.354 272.965 372.413 272.578 372.413C272.232 372.413 271.878 372.346 271.515 372.211C271.157 372.082 270.829 371.88 270.53 371.604C270.237 371.323 269.994 370.969 269.801 370.541C269.613 370.107 269.52 369.592 269.52 368.994C269.52 368.619 269.566 368.25 269.66 367.887C269.76 367.523 269.889 367.181 270.047 366.858C270.211 366.536 270.401 366.24 270.618 365.971C270.841 365.695 271.072 365.461 271.312 365.268C271.559 365.068 271.811 364.913 272.068 364.802C272.332 364.69 272.587 364.635 272.833 364.635C273.261 364.635 273.612 364.702 273.888 364.837C274.169 364.972 274.392 365.139 274.556 365.338C274.72 365.537 274.834 365.751 274.898 365.979C274.969 366.202 275.004 366.404 275.004 366.586C275.004 366.762 274.96 366.964 274.872 367.192C274.79 367.415 274.652 367.629 274.459 367.834C274.266 368.033 274.014 368.203 273.703 368.344C273.393 368.479 273.012 368.546 272.561 368.546C272.32 368.546 272.104 368.514 271.91 368.449C271.723 368.379 271.556 368.294 271.409 368.194C271.263 368.089 271.137 367.978 271.031 367.86C270.932 367.737 270.847 367.623 270.776 367.518C270.671 367.881 270.618 368.306 270.618 368.792C270.618 369.126 270.665 369.428 270.759 369.697C270.858 369.961 270.993 370.187 271.163 370.374C271.333 370.562 271.535 370.705 271.77 370.805C272.004 370.904 272.262 370.954 272.543 370.954C272.895 370.954 273.202 370.896 273.466 370.778C273.729 370.655 273.958 370.503 274.151 370.321C274.351 370.14 274.521 369.943 274.661 369.732C274.808 369.516 274.934 369.319 275.039 369.144C275.145 368.962 275.235 368.812 275.312 368.695C275.394 368.578 275.473 368.522 275.549 368.528C275.584 368.528 275.602 368.558 275.602 368.616C275.602 368.646 275.599 368.675 275.593 368.704C275.587 368.733 275.578 368.763 275.566 368.792ZM272.921 365.522C272.815 365.522 272.678 365.546 272.508 365.593C272.344 365.634 272.168 365.71 271.98 365.821C271.799 365.933 271.617 366.085 271.436 366.278C271.254 366.466 271.096 366.706 270.961 366.999C271.043 366.958 271.113 366.923 271.172 366.894C271.236 366.864 271.28 366.85 271.304 366.85C271.315 366.85 271.333 366.861 271.356 366.885C271.491 367.113 271.658 367.277 271.857 367.377C272.062 367.471 272.291 367.518 272.543 367.518C272.742 367.518 272.912 367.485 273.053 367.421C273.199 367.351 273.319 367.263 273.413 367.157C273.507 367.052 273.574 366.938 273.615 366.814C273.656 366.686 273.677 366.56 273.677 366.437C273.677 366.173 273.609 365.956 273.475 365.786C273.34 365.61 273.155 365.522 272.921 365.522ZM289.629 370.365C289.629 370.389 289.614 370.433 289.585 370.497C289.556 370.562 289.521 370.629 289.479 370.699C289.444 370.77 289.403 370.837 289.356 370.901C289.315 370.96 289.28 370.995 289.251 371.007C289.233 371.019 289.154 371.051 289.014 371.104C288.879 371.15 288.697 371.209 288.469 371.279C288.24 371.344 287.971 371.414 287.66 371.49C287.355 371.566 287.021 371.64 286.658 371.71C286.301 371.774 285.917 371.83 285.507 371.877C285.103 371.918 284.689 371.941 284.268 371.947C283.916 371.959 283.588 371.971 283.283 371.982C282.979 371.994 282.694 372 282.431 372C282.284 372 282.144 371.997 282.009 371.991C281.88 371.985 281.757 371.977 281.64 371.965C281.476 371.947 281.317 371.927 281.165 371.903C281.03 371.88 280.89 371.851 280.743 371.815C280.603 371.78 280.479 371.733 280.374 371.675C280.345 371.669 280.318 371.654 280.295 371.631C280.248 371.596 280.228 371.546 280.233 371.481C280.181 371.452 280.143 371.42 280.119 371.385C280.107 371.367 280.099 371.355 280.093 371.35C280.093 371.338 280.096 371.323 280.102 371.306C280.107 371.282 280.134 371.238 280.181 371.174C280.14 371.168 280.107 371.156 280.084 371.139C280.066 371.121 280.052 371.101 280.04 371.077C280.022 371.054 280.014 371.024 280.014 370.989C280.014 370.954 280.02 370.919 280.031 370.884C280.043 370.854 280.058 370.822 280.075 370.787C280.099 370.746 280.134 370.705 280.181 370.664C280.181 370.588 280.189 370.532 280.207 370.497C280.213 370.474 280.222 370.459 280.233 370.453C280.239 370.436 280.263 370.418 280.304 370.4C280.345 370.383 280.392 370.368 280.444 370.356C280.497 370.345 280.55 370.336 280.603 370.33C280.661 370.324 280.711 370.324 280.752 370.33L280.77 370.348C280.781 369.961 280.796 369.542 280.813 369.091C280.831 368.64 280.849 368.221 280.866 367.834C280.89 367.383 280.913 366.935 280.937 366.489C280.96 365.938 280.995 365.358 281.042 364.749C281.083 364.228 281.133 363.642 281.191 362.991C281.25 362.341 281.326 361.679 281.42 361.005L280.409 361.022C280.345 361.022 280.283 361.014 280.225 360.996C280.178 360.984 280.128 360.964 280.075 360.935C280.022 360.905 279.984 360.861 279.961 360.803C279.867 360.791 279.797 360.773 279.75 360.75C279.709 360.727 279.677 360.703 279.653 360.68C279.63 360.656 279.618 360.627 279.618 360.592C279.63 360.527 279.65 360.478 279.68 360.442C279.709 360.407 279.768 360.366 279.855 360.319C279.955 360.284 280.025 360.24 280.066 360.188C280.113 360.129 280.163 360.094 280.216 360.082C280.239 360.076 280.377 360.05 280.629 360.003C280.881 359.95 281.2 359.892 281.587 359.827C281.974 359.757 282.407 359.692 282.888 359.634C283.368 359.569 283.846 359.522 284.32 359.493C284.725 359.464 285.126 359.446 285.524 359.44C285.929 359.435 286.307 359.432 286.658 359.432C287.139 359.432 287.543 359.438 287.871 359.449C288.199 359.461 288.396 359.476 288.46 359.493C288.501 359.505 288.542 359.525 288.583 359.555C288.612 359.584 288.645 359.625 288.68 359.678C288.715 359.725 288.744 359.789 288.768 359.871C288.814 359.895 288.847 359.918 288.864 359.941C288.888 359.959 288.905 359.977 288.917 359.994L288.943 360.047C288.943 360.082 288.943 360.126 288.943 360.179C288.943 360.226 288.938 360.267 288.926 360.302C288.92 360.313 288.908 360.325 288.891 360.337C288.879 360.349 288.861 360.36 288.838 360.372C288.82 360.384 288.797 360.396 288.768 360.407C288.773 360.489 288.773 360.554 288.768 360.601C288.762 360.647 288.753 360.686 288.741 360.715C288.729 360.744 288.715 360.768 288.697 360.785C288.656 360.814 288.586 360.838 288.486 360.855C288.393 360.867 288.217 360.873 287.959 360.873L282.519 360.987C282.501 361.157 282.483 361.359 282.466 361.594C282.454 361.822 282.439 362.068 282.422 362.332C282.41 362.596 282.396 362.865 282.378 363.141C282.366 363.416 282.354 363.683 282.343 363.94C282.331 364.192 282.319 364.427 282.308 364.644C282.296 364.86 282.287 365.039 282.281 365.18C282.504 365.115 282.75 365.065 283.02 365.03C283.289 364.989 283.541 364.957 283.775 364.934C284.051 364.91 284.323 364.89 284.593 364.872C284.763 364.86 284.927 364.854 285.085 364.854C285.243 364.854 285.396 364.854 285.542 364.854C286.128 364.854 286.579 364.866 286.896 364.89C287.218 364.913 287.402 364.931 287.449 364.942C287.484 364.948 287.522 364.972 287.563 365.013C287.604 365.054 287.643 365.104 287.678 365.162C287.713 365.215 287.742 365.276 287.766 365.347C287.795 365.411 287.81 365.47 287.81 365.522C287.81 365.622 287.783 365.728 287.73 365.839C287.678 365.95 287.634 366.041 287.599 366.111C287.552 366.188 287.49 366.261 287.414 366.331C287.338 366.401 287.273 366.431 287.221 366.419C287.203 366.419 287.13 366.416 287.001 366.41C286.872 366.404 286.711 366.398 286.518 366.393C286.33 366.381 286.125 366.372 285.902 366.366C285.68 366.36 285.463 366.354 285.252 366.349C285.041 366.343 284.851 366.34 284.681 366.34C284.517 366.334 284.396 366.331 284.32 366.331C284.227 366.331 284.089 366.34 283.907 366.357C283.755 366.369 283.544 366.39 283.274 366.419C283.005 366.448 282.662 366.489 282.246 366.542C282.234 366.782 282.229 367.034 282.229 367.298C282.229 367.562 282.229 367.84 282.229 368.133C282.229 368.537 282.234 368.938 282.246 369.337C282.258 369.729 282.278 370.084 282.308 370.4H283.257C283.591 370.4 283.922 370.397 284.25 370.392C284.578 370.38 284.877 370.365 285.146 370.348C285.539 370.318 285.911 370.286 286.263 370.251C286.62 370.216 286.939 370.184 287.221 370.154C287.502 370.125 287.736 370.104 287.924 370.093C288.111 370.075 288.229 370.069 288.275 370.075C288.322 370.087 288.384 370.09 288.46 370.084C288.542 370.078 288.627 370.069 288.715 370.058C288.803 370.046 288.888 370.034 288.97 370.022C289.052 370.011 289.116 369.999 289.163 369.987C289.204 369.981 289.251 369.993 289.304 370.022C289.356 370.046 289.406 370.081 289.453 370.128C289.5 370.169 289.538 370.213 289.567 370.26C289.603 370.307 289.623 370.342 289.629 370.365ZM295.614 366.85C295.62 367.055 295.603 367.307 295.562 367.605C295.521 367.898 295.474 368.215 295.421 368.555C295.368 368.889 295.318 369.231 295.271 369.583C295.225 369.935 295.201 370.266 295.201 370.576C295.201 370.781 295.216 370.978 295.245 371.165C295.274 371.347 295.324 371.505 295.395 371.64C295.436 371.716 295.456 371.783 295.456 371.842C295.462 371.9 295.459 371.953 295.447 372C295.436 372.041 295.424 372.076 295.412 372.105C295.4 372.141 295.4 372.173 295.412 372.202C295.424 372.231 295.421 372.264 295.403 372.299C295.386 372.34 295.359 372.375 295.324 372.404C295.289 372.439 295.248 372.463 295.201 372.475C295.16 372.492 295.122 372.489 295.087 372.466C295.022 372.425 294.97 372.401 294.929 372.396C294.894 372.39 294.861 372.39 294.832 372.396C294.809 372.407 294.785 372.419 294.762 372.431C294.744 372.442 294.721 372.442 294.691 372.431C294.592 372.378 294.483 372.316 294.366 372.246C294.249 372.176 294.173 372.1 294.138 372.018C294.114 371.982 294.091 371.924 294.067 371.842C294.05 371.76 294.032 371.663 294.015 371.552C294.003 371.44 293.991 371.32 293.979 371.191C293.968 371.062 293.959 370.937 293.953 370.813C293.76 371.177 293.552 371.479 293.329 371.719C293.112 371.959 292.893 372.149 292.67 372.29C292.453 372.437 292.236 372.539 292.02 372.598C291.809 372.656 291.615 372.686 291.439 372.686C291.258 372.686 291.097 372.662 290.956 372.615C290.821 372.568 290.716 372.513 290.64 372.448C290.353 372.161 290.147 371.93 290.024 371.754C289.907 371.572 289.854 371.426 289.866 371.314C289.896 370.939 289.986 370.594 290.139 370.277C290.291 369.961 290.481 369.671 290.71 369.407C290.938 369.138 291.193 368.897 291.475 368.687C291.762 368.47 292.052 368.279 292.345 368.115C292.644 367.945 292.937 367.805 293.224 367.693C293.511 367.576 293.771 367.482 294.006 367.412C293.994 367.096 293.979 366.82 293.962 366.586C293.95 366.346 293.93 366.17 293.9 366.059C293.812 365.695 293.678 365.426 293.496 365.25C293.314 365.068 293.095 364.978 292.837 364.978C292.673 364.978 292.506 365.039 292.336 365.162C292.172 365.285 292.022 365.452 291.888 365.663C291.753 365.874 291.642 366.117 291.554 366.393C291.472 366.668 291.428 366.958 291.422 367.263C291.422 367.339 291.425 367.412 291.431 367.482C291.437 367.553 291.445 367.626 291.457 367.702C291.463 367.743 291.448 367.772 291.413 367.79C291.384 367.808 291.346 367.822 291.299 367.834C291.252 367.84 291.202 367.846 291.149 367.852C291.097 367.857 291.053 367.866 291.018 367.878C290.988 367.89 290.965 367.898 290.947 367.904C290.93 367.904 290.912 367.901 290.895 367.896C290.877 367.884 290.854 367.866 290.824 367.843C290.801 367.819 290.766 367.79 290.719 367.755C290.672 367.72 290.622 367.69 290.569 367.667C290.522 367.644 290.479 367.623 290.438 367.605C290.402 367.588 290.37 367.573 290.341 367.562C290.317 367.544 290.306 367.523 290.306 367.5C290.306 367.137 290.385 366.762 290.543 366.375C290.707 365.988 290.924 365.637 291.193 365.32C291.469 364.998 291.785 364.734 292.143 364.529C292.506 364.324 292.89 364.222 293.294 364.222C293.622 364.222 293.906 364.271 294.146 364.371C294.387 364.471 294.592 364.6 294.762 364.758C294.932 364.916 295.069 365.092 295.175 365.285C295.286 365.479 295.371 365.675 295.43 365.874C295.494 366.067 295.538 366.252 295.562 366.428C295.591 366.598 295.608 366.738 295.614 366.85ZM294.023 368.414C293.848 368.479 293.654 368.563 293.443 368.669C293.232 368.774 293.019 368.9 292.802 369.047C292.585 369.188 292.368 369.352 292.151 369.539C291.935 369.727 291.732 369.935 291.545 370.163C291.322 370.427 291.161 370.661 291.062 370.866C290.962 371.071 290.9 371.247 290.877 371.394C290.854 371.534 290.859 371.646 290.895 371.728C290.93 371.81 290.971 371.859 291.018 371.877C291.199 371.947 291.387 371.956 291.58 371.903C291.779 371.845 291.976 371.745 292.169 371.604C292.368 371.458 292.559 371.285 292.74 371.086C292.928 370.881 293.104 370.673 293.268 370.462C293.432 370.245 293.578 370.034 293.707 369.829C293.836 369.618 293.941 369.437 294.023 369.284V368.414ZM302.487 365.092C302.505 365.127 302.514 365.162 302.514 365.197C302.52 365.232 302.522 365.273 302.522 365.32C302.522 365.508 302.423 365.704 302.224 365.909C302.03 366.114 301.723 366.302 301.301 366.472C301.213 366.507 301.134 366.524 301.063 366.524C300.976 366.524 300.899 366.501 300.835 366.454C300.776 366.401 300.747 366.349 300.747 366.296C300.747 366.261 300.768 366.22 300.809 366.173C300.855 366.126 300.902 366.079 300.949 366.032C301.002 365.985 301.049 365.941 301.09 365.9C301.137 365.859 301.16 365.827 301.16 365.804C301.16 365.757 301.122 365.733 301.046 365.733C300.929 365.733 300.779 365.769 300.598 365.839C300.416 365.903 300.223 365.991 300.018 366.103C299.818 366.208 299.613 366.325 299.402 366.454C299.197 366.577 299.013 366.7 298.849 366.823C298.685 366.94 298.55 367.046 298.444 367.14C298.345 367.233 298.295 367.301 298.295 367.342C298.295 367.365 298.318 367.377 298.365 367.377H298.62C298.778 367.377 298.98 367.386 299.227 367.403C299.479 367.421 299.742 367.456 300.018 367.509C300.293 367.556 300.568 367.626 300.844 367.72C301.125 367.808 301.374 367.928 301.591 368.08C301.813 368.232 301.995 368.417 302.136 368.634C302.276 368.851 302.347 369.108 302.347 369.407C302.347 369.56 302.32 369.724 302.268 369.899C302.221 370.069 302.133 370.245 302.004 370.427C301.881 370.603 301.711 370.784 301.494 370.972C301.277 371.153 301.002 371.335 300.668 371.517C300.164 371.786 299.692 371.985 299.253 372.114C298.819 372.243 298.427 372.308 298.075 372.308C297.618 372.308 297.258 372.205 296.994 372C296.73 371.795 296.599 371.502 296.599 371.121C296.599 370.84 296.651 370.6 296.757 370.4C296.868 370.201 296.997 370.037 297.144 369.908C297.29 369.773 297.437 369.677 297.583 369.618C297.729 369.554 297.841 369.519 297.917 369.513C297.952 369.513 297.981 369.51 298.005 369.504C298.034 369.498 298.063 369.495 298.093 369.495C298.146 369.495 298.172 369.527 298.172 369.592V369.68C298.172 369.715 298.181 369.747 298.198 369.776C298.216 369.8 298.225 369.826 298.225 369.855C298.225 369.891 298.181 369.943 298.093 370.014C298.011 370.084 297.92 370.166 297.82 370.26C297.721 370.354 297.627 370.453 297.539 370.559C297.457 370.664 297.416 370.767 297.416 370.866C297.416 370.983 297.51 371.042 297.697 371.042C297.932 371.042 298.178 370.998 298.436 370.91C298.699 370.816 298.954 370.699 299.2 370.559C299.452 370.418 299.689 370.26 299.912 370.084C300.141 369.902 300.34 369.727 300.51 369.557C300.68 369.387 300.814 369.229 300.914 369.082C301.014 368.93 301.063 368.81 301.063 368.722C301.063 368.616 301.002 368.531 300.879 368.467C300.762 368.402 300.598 368.35 300.387 368.309C300.182 368.268 299.941 368.241 299.666 368.229C299.391 368.212 299.101 368.203 298.796 368.203C298.479 368.203 298.216 368.218 298.005 368.247C297.8 368.276 297.674 368.291 297.627 368.291C297.592 368.291 297.533 368.288 297.451 368.282C297.375 368.271 297.296 368.244 297.214 368.203C297.138 368.156 297.07 368.089 297.012 368.001C296.953 367.913 296.924 367.787 296.924 367.623C296.924 367.512 296.947 367.386 296.994 367.245C297.047 367.104 297.135 366.955 297.258 366.797C297.387 366.633 297.56 366.457 297.776 366.27C297.999 366.082 298.28 365.886 298.62 365.681C298.978 365.464 299.312 365.288 299.622 365.153C299.938 365.013 300.223 364.904 300.475 364.828C300.732 364.752 300.958 364.702 301.151 364.679C301.345 364.649 301.497 364.635 301.608 364.635C301.872 364.635 302.068 364.67 302.197 364.74C302.326 364.805 302.423 364.922 302.487 365.092ZM310.775 364.837C310.758 364.866 310.696 364.966 310.591 365.136C310.491 365.3 310.362 365.511 310.204 365.769C310.046 366.021 309.864 366.311 309.659 366.639C309.46 366.961 309.252 367.298 309.035 367.649C308.824 367.995 308.613 368.341 308.402 368.687C308.191 369.032 307.992 369.357 307.805 369.662C307.623 369.961 307.465 370.228 307.33 370.462C307.195 370.696 307.096 370.872 307.031 370.989C306.967 371.106 306.876 371.288 306.759 371.534C306.642 371.78 306.507 372.062 306.354 372.378C306.202 372.7 306.038 373.046 305.862 373.415C305.692 373.784 305.52 374.153 305.344 374.522C305.174 374.897 305.007 375.258 304.843 375.604C304.685 375.955 304.541 376.269 304.412 376.544C304.289 376.819 304.187 377.045 304.104 377.221C304.022 377.402 303.976 377.511 303.964 377.546C303.911 377.681 303.861 377.763 303.814 377.792C303.773 377.827 303.712 377.854 303.63 377.871C303.589 377.877 303.557 377.865 303.533 377.836C303.51 377.807 303.489 377.771 303.472 377.73C303.454 377.689 303.437 377.651 303.419 377.616C303.401 377.587 303.381 377.569 303.357 377.563C303.281 377.552 303.237 377.534 303.226 377.511C303.22 377.493 303.202 377.455 303.173 377.396C303.155 377.373 303.138 377.358 303.12 377.353C303.103 377.353 303.085 377.353 303.067 377.353C303.05 377.353 303.038 377.35 303.032 377.344C303.021 377.338 303.015 377.32 303.015 377.291C303.026 377.191 303.035 377.092 303.041 376.992C303.053 376.893 303.067 376.802 303.085 376.72C303.103 376.655 303.161 376.521 303.261 376.315C303.366 376.11 303.495 375.858 303.647 375.56C303.8 375.267 303.97 374.938 304.157 374.575C304.351 374.218 304.544 373.852 304.737 373.477C304.937 373.107 305.13 372.741 305.317 372.378C305.511 372.015 305.684 371.684 305.836 371.385C305.76 371.221 305.657 371.01 305.528 370.752C305.399 370.488 305.259 370.198 305.106 369.882C304.954 369.56 304.79 369.22 304.614 368.862C304.444 368.505 304.277 368.15 304.113 367.799C303.949 367.447 303.791 367.107 303.639 366.779C303.486 366.451 303.352 366.158 303.234 365.9C303.123 365.637 303.035 365.42 302.971 365.25C302.906 365.074 302.874 364.966 302.874 364.925C302.88 364.854 302.895 364.808 302.918 364.784C302.941 364.755 302.974 364.74 303.015 364.74C303.05 364.74 303.088 364.749 303.129 364.767C303.176 364.784 303.223 364.802 303.27 364.819C303.34 364.849 303.407 364.878 303.472 364.907C303.536 364.931 303.583 364.919 303.612 364.872C303.63 364.825 303.68 364.802 303.762 364.802C303.844 364.796 303.911 364.808 303.964 364.837C303.981 364.854 303.996 364.86 304.008 364.854C304.025 364.849 304.04 364.837 304.052 364.819C304.069 364.802 304.087 364.784 304.104 364.767C304.128 364.743 304.154 364.726 304.184 364.714C304.248 364.702 304.307 364.714 304.359 364.749C304.412 364.784 304.462 364.86 304.509 364.978C304.538 365.065 304.597 365.218 304.685 365.435C304.778 365.651 304.887 365.903 305.01 366.19C305.139 366.478 305.279 366.788 305.432 367.122C305.584 367.45 305.736 367.775 305.889 368.098C306.041 368.414 306.185 368.713 306.319 368.994C306.46 369.275 306.583 369.51 306.688 369.697C306.847 369.404 307.017 369.094 307.198 368.766C307.386 368.432 307.573 368.101 307.761 367.772C307.954 367.438 308.145 367.113 308.332 366.797C308.52 366.48 308.695 366.188 308.859 365.918C309.029 365.648 309.179 365.414 309.308 365.215C309.437 365.01 309.542 364.854 309.624 364.749C309.671 364.69 309.694 364.652 309.694 364.635C309.694 364.617 309.718 364.6 309.765 364.582C309.8 364.57 309.829 364.559 309.853 364.547C309.882 364.535 309.926 364.535 309.984 364.547C310.037 364.559 310.078 364.564 310.107 364.564C310.137 364.564 310.16 364.582 310.178 364.617C310.189 364.635 310.207 364.641 310.23 364.635C310.254 364.629 310.28 364.62 310.31 364.608C310.345 364.591 310.38 364.576 310.415 364.564C310.45 364.547 310.485 364.541 310.521 364.547C310.562 364.553 310.603 364.562 310.644 364.573C310.685 364.579 310.72 364.594 310.749 364.617C310.784 364.641 310.805 364.67 310.811 364.705C310.816 364.74 310.805 364.784 310.775 364.837Z" fill="#9C3333"/>
<path fill-rule="evenodd" clip-rule="evenodd" d="M260.979 46.3923C225.625 51.8905 195.9 85.6401 181.659 136.453C175.56 158.216 171.669 186.135 171.669 208.139V219.617H194.433H217.197L217.861 209.909C219.753 182.196 226.387 174.863 250.885 173.409C254.827 173.175 258.517 172.697 259.083 172.345C259.744 171.937 260.115 164.067 260.115 150.465C260.115 131.818 259.918 129.147 258.508 128.605C256.517 127.84 242.528 129.548 235.574 131.405C232.734 132.163 227.868 134.164 224.758 135.851C221.649 137.539 218.773 138.715 218.367 138.464C217.963 138.213 217.088 134.509 216.425 130.234C213.795 113.3 219.784 100.524 233.277 94.2856C241.095 90.6713 255.236 90.0988 264.781 93.0102C273.382 95.6338 282.385 100.968 287.333 106.37C291.733 111.172 296.433 120.4 297.399 126.129L298.053 130.006H319.476H340.898L340.303 123.783C339.302 113.296 334.895 98.1997 329.764 87.6743C321.797 71.3322 312.276 60.6634 298.872 53.0624C288.948 47.4338 272.687 44.5722 260.979 46.3923ZM281.393 48.8566C301.425 53.1082 317.738 66.9452 328.169 88.5326C332.638 97.7805 337.131 112.968 338.27 122.677L338.896 128.014H319.478H300.06L297.978 121.148C294.431 109.447 285.922 100.053 273.588 94.2209C264.995 90.1565 257.922 88.8621 247.095 89.3719C235.425 89.9206 228.545 92.8897 221.972 100.215C216.38 106.446 214.054 113.153 214.056 123.036C214.058 130.55 215.877 140.523 217.418 141.478C217.874 141.761 220.401 140.623 223.032 138.95C225.664 137.277 230.558 135.06 233.907 134.022C239.258 132.365 252.665 130.006 256.729 130.006C257.947 130.006 258.126 133.171 257.899 150.666L257.63 171.327L247.693 171.943C233.056 172.852 225.38 176.771 220.988 185.577C217.739 192.092 217.171 194.757 216.49 206.673L215.892 217.128L194.623 217.397L173.354 217.667L173.961 200.47C176.055 141.056 195.251 90.504 225.142 65.6876C243.089 50.7873 262.76 44.9018 281.393 48.8566Z" fill="#F9574D"/>
<path d="M281.393 48.8566C301.425 53.1082 317.738 66.9452 328.169 88.5326C332.638 97.7805 337.131 112.968 338.27 122.677L338.896 128.014H319.478H300.06L297.978 121.148C294.431 109.447 285.922 100.053 273.588 94.2209C264.995 90.1565 257.922 88.8621 247.095 89.3719C235.425 89.9206 228.545 92.8897 221.972 100.215C216.38 106.446 214.054 113.153 214.056 123.036C214.058 130.55 215.877 140.523 217.418 141.478C217.874 141.761 220.401 140.623 223.032 138.95C225.664 137.277 230.558 135.06 233.907 134.022C239.258 132.365 252.665 130.006 256.729 130.006C257.947 130.006 258.126 133.171 257.899 150.666L257.63 171.327L247.693 171.943C233.056 172.852 225.38 176.771 220.988 185.577C217.739 192.092 217.171 194.757 216.49 206.673L215.892 217.128L194.623 217.397L173.354 217.667L173.961 200.47C176.055 141.056 195.251 90.504 225.142 65.6876C243.089 50.7873 262.76 44.9018 281.393 48.8566Z" fill="#F9574D"/>
</svg>
